<svg width="800" height="600" xmlns="http://www.w3.org/2000/svg">

 <g>
  <title>Layer 1</title>
  <path d="m345,173c1,0 1,1 1,2c0,2 0,6 0,11c0,6 -0.14471,12.05244 -1,19c-1.00754,8.18443 -3.46765,15.85739 -6,25c-2.461,8.88501 -4.83392,18.05707 -8,27c-2.85141,8.05417 -6.29349,14.88138 -9,22c-2.24762,5.91171 -5.19028,9.88153 -7,13c-1.12234,1.93399 -1.29291,4.70709 -2,4c-0.70709,-0.70709 1,-3 2,-9c1,-6 1.50229,-13.01376 2,-22c0.50076,-9.04153 1.49939,-16.9626 2,-27c0.44833,-8.98883 0.867,-18.03442 3,-26c1.88312,-7.03235 3.60703,-13.17572 6,-18c2.59106,-5.22363 4.88153,-8.19028 8,-10c1.93399,-1.12234 4.02249,-2.36655 7,-2c4.09222,0.50377 7.6095,2.16289 12,6c4.82135,4.21362 8.64011,11.20956 14,20c5.63113,9.23529 11.22314,19.89101 17,32c5.20273,10.90556 9.29547,22.88681 13,33c3.26306,8.90799 6.54691,17.84464 8,24c1.6246,6.8819 2.48056,12.03873 2,15c-0.50653,3.12143 -1.54916,5.95517 -5,7c-2.87128,0.86935 -8.01691,0.09662 -14,-1c-10.03094,-1.8385 -20.86536,-6.3244 -35,-12c-15.85739,-6.36734 -33,-13 -50,-20c-17,-7 -34.07428,-13.81757 -49,-20c-14.07211,-5.82886 -24.08743,-10.79393 -29,-13c-2.03983,-0.91602 -2.06586,-2.14429 0,-3c5.84312,-2.4203 12.8504,-4.67894 25,-7c14.86395,-2.8396 32.05527,-3.50844 52,-6c20.06778,-2.50693 41.06155,-4.43445 62,-7c20.07364,-2.45959 38.18204,-4.8708 54,-8c11.185,-2.21268 21,-5 28,-8l4,-2" id="svg_1" stroke="#000" fill="none"/>
 </g>
</svg>